<svg xmlns="http://www.w3.org/2000/svg" xmlns:xlink="http://www.w3.org/1999/xlink" width="16" height="16" x="0" y="0" version="1.1" viewBox="0 0 16 16" xml:space="preserve" style="enable-background:new 0 0 16 16"><style type="text/css">.st0{fill:none}.st1{fill:#f1c21b}</style><rect width="16" height="16" class="st0"/><path d="M14.9,13.3l-6.5-12C8.3,1,8,0.9,7.8,1.1c-0.1,0-0.2,0.1-0.2,0.2l-6.5,12c-0.1,0.1-0.1,0.3,0,0.5	C1.2,13.9,1.3,14,1.5,14h13c0.2,0,0.3-0.1,0.4-0.2C15,13.6,15,13.4,14.9,13.3z M7.4,4h1.1v5H7.4V4z M8,11.8c-0.4,0-0.8-0.4-0.8-0.8	s0.4-0.8,0.8-0.8c0.4,0,0.8,0.4,0.8,0.8S8.4,11.8,8,11.8z" class="st1"/><g><g><g><rect width="1.1" height="5" x="7.45" y="4"/></g></g><g><g><circle cx="8" cy="11" r=".8"/></g></g></g></svg>